# xmcd
#
# Track frame offsets:
#	150
#	15807
#	26550
#	39372
#	50007
#	65662
#	80797
#	92372
#	102192
#	113172
#	123480
#	141402
#	152877
#	163237
#	174034
#	190117
#	204107
#
# Disc length: 2887 seconds
#
# Revision: 0
# Processed by: cddbd v1.4PL0 Copyright (c) Steve Scherf et al.
# Submitted via: dBpowerAMP V4.0
#
DISCID=d70b4511
DTITLE=Captain Concho - From the hills to the plains
DYEAR=1995
DGENRE=Rockabilly
TTITLE0=Rodeo Boogie
TTITLE1=Tennessee
TTITLE2=Bayou Ball
TTITLE3=Uncle Sammy
TTITLE4=160 Acres
TTITLE5=Smoke On The Water
TTITLE6=Rollin' My Sweet Baby Arms
TTITLE7=Tennessee Central No. 9
TTITLE8=If I Can
TTITLE9=Will The Circle Be Unbroken
TTITLE10=Cow Cow Boogie
TTITLE11=Skip To My Lou
TTITLE12=Poultry Polka
TTITLE13=Red River Valley
TTITLE14=Pecos Bill
TTITLE15=The Auctioneer
TTITLE16=Searchers
EXTD=
EXTT0=
EXTT1=
EXTT2=
EXTT3=
EXTT4=
EXTT5=
EXTT6=
EXTT7=
EXTT8=
EXTT9=
EXTT10=
EXTT11=
EXTT12=
EXTT13=
EXTT14=
EXTT15=
EXTT16=
PLAYORDER=
